<svg xmlns="http://www.w3.org/2000/svg" width="29.999" height="30" viewBox="0 0 29.999 30">
    <path data-name="빼기 2" d="M-1780.137-25.06a1.36 1.36 0 0 1-.844-.367l-5.171-5.17a.451.451 0 0 1-.077-.125v-.01a1.5 1.5 0 0 0-.169-.276 1.334 1.334 0 0 1 0-.895l.054-.108v-.066a2.211 2.211 0 0 1 .193-.21l5.172-5.172a1.2 1.2 0 0 1 .844-.367 1.2 1.2 0 0 1 .845.367 1.2 1.2 0 0 1 .367.845 1.2 1.2 0 0 1-.367.845l-3.115 3.114h9.165a1.124 1.124 0 0 1 1.211 1.212 1.124 1.124 0 0 1-1.211 1.211h-9.165l3.115 3.115a1.2 1.2 0 0 1 .367.844 1.2 1.2 0 0 1-.367.844 1.362 1.362 0 0 1-.847.369z" transform="translate(1786.476 46.442)" style="fill:#222"/>
    <path data-name="빼기 3" d="M-1778.3-7.825a14.942 14.942 0 0 1-7.5-2 1.389 1.389 0 0 1-.5-1.717 1.412 1.412 0 0 1 1.069-.509 1.214 1.214 0 0 1 .63.175l.018.011a13.157 13.157 0 0 0 6.277 1.614 12.511 12.511 0 0 0 8.915-3.662 12.509 12.509 0 0 0 3.661-8.915 12.514 12.514 0 0 0-3.661-8.915 12.514 12.514 0 0 0-8.909-3.657 13.157 13.157 0 0 0-6.277 1.614l-.018.011a1.148 1.148 0 0 1-.6.169 1.323 1.323 0 0 1-1.115-.683 1.239 1.239 0 0 1 .5-1.7 16.715 16.715 0 0 1 7.508-1.833 14.916 14.916 0 0 1 10.625 4.375 14.913 14.913 0 0 1 4.375 10.625 14.913 14.913 0 0 1-4.375 10.625 14.915 14.915 0 0 1-10.623 4.372z" transform="translate(1793.303 37.824)" style="fill:#222"/>
</svg>
