<svg xmlns="http://www.w3.org/2000/svg" width="32" height="32" viewBox="0 0 32 32">
    <path d="M16.5 2A15.5 15.5 0 1 0 32 17.5 15.518 15.518 0 0 0 16.5 2zM7.131 28.359A11.676 11.676 0 0 1 16.2 23.8c.055 0 .108.016.163.016h.053c.05 0 .1-.014.147-.016a11.66 11.66 0 0 1 9.149 4.689 14.3 14.3 0 0 1-18.583-.131zm9.241-5.716c-.057 0-.112.009-.17.011a5.133 5.133 0 1 1 .364 0c-.066 0-.128-.011-.194-.011zm10.192 5.077a12.822 12.822 0 0 0-7.142-4.7 6.3 6.3 0 1 0-6.073 0 12.84 12.84 0 0 0-7.061 4.572 14.363 14.363 0 1 1 20.276.135z" transform="translate(-.5 -1.5)" style="fill:#222"/>
    <path data-name="path7 - 윤곽선" d="M16.5 1.5a16 16 0 1 1-16 16 16.018 16.018 0 0 1 16-16zm0 30.968a14.965 14.965 0 1 0-10.586-4.385A14.985 14.985 0 0 0 16.5 32.468zm0-29.818A14.872 14.872 0 0 1 31.358 17.5a14.7 14.7 0 0 1-1.2 5.825 14.871 14.871 0 0 1-3.246 4.747l-.417.411-.355-.466a12.345 12.345 0 0 0-6.846-4.51l-1.28-.307 1.155-.639a5.8 5.8 0 0 0 3-5.071 5.692 5.692 0 0 0-1.693-4.065 5.8 5.8 0 0 0-4.114-1.688 5.692 5.692 0 0 0-4.062 1.692 5.761 5.761 0 0 0 1.3 9.126l1.154.641-1.283.312A12.361 12.361 0 0 0 6.7 27.892l-.362.462-.412-.417A14.852 14.852 0 0 1 16.5 2.649zm10.092 24.28A13.816 13.816 0 1 0 2.679 17.5a13.726 13.726 0 0 0 3.591 9.29 13.434 13.434 0 0 1 5.877-3.975 6.816 6.816 0 1 1 8.477.006 13.415 13.415 0 0 1 5.968 4.109zM16.42 11.846a5.581 5.581 0 0 1 3.988 1.662 5.685 5.685 0 0 1 1.652 4.033 5.639 5.639 0 0 1-5.479 5.626h-.033c-.044 0-.085-.006-.117-.009h-.107c-.033 0-.066.006-.1.007h-.037a5.64 5.64 0 0 1-5.461-5.679 5.581 5.581 0 0 1 1.661-3.986 5.685 5.685 0 0 1 4.033-1.654zm.152 10.289a4.607 4.607 0 0 0 4.456-4.594 4.659 4.659 0 0 0-1.353-3.306 4.556 4.556 0 0 0-3.255-1.357 4.659 4.659 0 0 0-3.306 1.353 4.556 4.556 0 0 0-1.357 3.255 4.612 4.612 0 0 0 4.44 4.646h.03c.039 0 .088-.008.144-.008a1.574 1.574 0 0 1 .16.01zm-.015 1.143h.016a12.164 12.164 0 0 1 9.544 4.891l.292.39-.373.314A14.784 14.784 0 0 1 6.8 28.738l-.368-.319.3-.386a12.18 12.18 0 0 1 9.463-4.755h.029a1.241 1.241 0 0 1 .124.012H16.419a1.094 1.094 0 0 1 .123-.014zm-.139 1.048h-.053a1.107 1.107 0 0 1-.16-.013h-.019a11.145 11.145 0 0 0-8.326 3.966 13.769 13.769 0 0 0 17.124.12 11.125 11.125 0 0 0-8.4-4.087h-.008a.989.989 0 0 1-.158.014z" transform="translate(-.5 -1.5)" style="fill:#222"/>
</svg>
