<svg xmlns="http://www.w3.org/2000/svg" width="160" height="93.343" viewBox="0 0 160 93.343">
    <defs>
        <linearGradient id="96rjsg19oa" x1="3.142" y1="1" x2="3.123" gradientUnits="objectBoundingBox">
            <stop offset="0" stop-color="#7833dc"/>
            <stop offset="1" stop-color="#cf52e8"/>
        </linearGradient>
        <clipPath id="j2ptojxlcb">
            <path data-name="사각형 6" style="fill:url(#96rjsg19oa)" d="M0 0h160v60.726H0z"/>
        </clipPath>
    </defs>
    <path data-name="교차 6" d="M109.278 21.268V15.73h-2.444v-2.444h2.444V9.49h3.25v3.8h3.848v2.44h-3.848v5.356a2.772 2.772 0 0 0 .546 1.872 2.236 2.236 0 0 0 1.768.624 3.285 3.285 0 0 0 .754-.091c.26-.06.528-.126.806-.2l.493 2.392a4.319 4.319 0 0 1-1.183.416 6.5 6.5 0 0 1-1.391.157q-5.043.004-5.043-4.988zM127.14 26v-7.592a3.369 3.369 0 0 0-.559-2.157 2.117 2.117 0 0 0-1.73-.677 2.977 2.977 0 0 0-2.274.9 3.329 3.329 0 0 0-.845 2.379V26h-3.25V7.67h3.25v7.462a4.171 4.171 0 0 1 1.742-1.572 5.439 5.439 0 0 1 2.418-.534q4.5 0 4.5 5.226V26zm-25.272 0V13.286h3.25V26zm-9.7 0-3.094-8.19-3.04 8.19H83.2l-4.7-11.909v-.805h3.01l3.25 8.944 3.276-8.944h2.288l3.276 9 3.25-9H100L95 26zm9.491-15.444V7.384h3.64v3.172z" transform="translate(-78 -7.384)" style="fill:#803ad3"/>
    <g data-name="그룹 9">
        <g data-name="그룹 8" style="clip-path:url(#j2ptojxlcb)" transform="translate(0 32.616)">
            <path data-name="패스 13" d="M0 60.722V.029h1.484L19.6.027c5.064 0 8.39 3.156 8.488 8.237.09 4.714.065 9.433 0 14.149-.046 3.249-1.13 5.049-4.01 7.152 3.548 1.751 4.886 4.783 4.908 8.543.025 4.585-.041 9.17.023 13.753a7.984 7.984 0 0 1-3.75 7.009 9.906 9.906 0 0 1-5.931 1.879c-6.39-.076-12.779-.027-19.328-.027m10.466-9.274c2.381 0 4.624-.054 6.864.019 1.3.043 1.74-.588 1.74-1.742 0-4.052.024-8.1-.014-12.156a3.115 3.115 0 0 0-2.607-3.2c-1.96-.132-3.935-.034-5.982-.034zM10.4 9.189v15.933c2.317 0 4.554.043 6.784-.046a1.382 1.382 0 0 0 .894-1.006c.062-4.535.072-9.073 0-13.607a1.651 1.651 0 0 0-1.048-1.217c-2.184-.118-4.377-.057-6.633-.057" transform="translate(0 -.024)" style="fill-rule:evenodd;fill:url(#96rjsg19oa)"/>
            <path data-name="패스 14" d="M1083.257 40.754h9.876c.032.414.087.791.088 1.167.008 2.823.027 5.644-.007 8.466-.011.923.308 1.434 1.27 1.434 1.631 0 3.262-.009 4.894-.007 1.018 0 1.434-.612 1.44-1.515.025-3.571.087-7.146-.042-10.713a3.358 3.358 0 0 0-1.265-2.187 51.226 51.226 0 0 0-5.469-3.666 28.8 28.8 0 0 1-8.928-7.327 8.894 8.894 0 0 1-2-5.847c.134-4.229.038-8.465.036-12.7A7.862 7.862 0 0 1 1091.059 0c3.836-.009 7.673 0 11.51 0 5.078 0 7.95 2.644 8.353 7.7.039.481.025.969.025 1.454v9.351h-9.778c-.034-.347-.1-.72-.1-1.1-.026-2.2-.056-4.408-.045-6.614 0-.915-.376-1.447-1.3-1.463-1.807-.029-3.62-.085-5.419.041a1.638 1.638 0 0 0-1.057 1.186 92.354 92.354 0 0 0 .04 9.516c.065.86 1.14 1.832 1.984 2.415 2.682 1.849 5.485 3.521 8.218 5.3 2.416 1.569 4.783 3.26 6.215 5.817a9.226 9.226 0 0 1 1.188 4.08c.139 4.979.066 9.964.05 14.947a8.07 8.07 0 0 1-7.943 8.058c-4.188.048-8.378.037-12.567 0-3.365-.029-7.176-3.687-7.25-7.069-.089-4.1-.022-8.2-.017-12.3a3.742 3.742 0 0 1 .095-.566" transform="translate(-950.978)" style="fill-rule:evenodd;fill:url(#96rjsg19oa)"/>
            <path data-name="패스 15" d="M519.324 9.813c-2.912 0-5.592-.045-8.268.024a1.522 1.522 0 0 1-1.712-1.191c-1.011-2.707-2.116-5.378-3.227-8.168h35.923c-.387 1.153-.732 2.211-1.1 3.263-.573 1.662-1.216 3.3-1.716 4.989a1.352 1.352 0 0 1-1.6 1.105c-2.722-.056-5.445-.02-8.3-.02v51.213h-10z" transform="translate(-444.374 -.42)" style="fill-rule:evenodd;fill:url(#96rjsg19oa)"/>
        </g>
    </g>
</svg>
